# xmcd
#
# Track frame offsets:
#	150
#	17118
#	31108
#	46495
#	56359
#	73711
#	89917
#	100927
#	111990
#	130694
#	147117
#	158782
#	177178
#	192775
#	199313
#	211673
#	219587
#	233552
#
# Disc length: 3331 seconds
#
# Revision: 1
# Processed by: cddbd v1.5.1PL2 Copyright (c) Steve Scherf et al.
# Submitted via: audiograbber 1.82.02
#
DISCID=fc0d0112
DTITLE=Gisli Helgason - Instrumental Impressions from Iceland
DYEAR=1900
DGENRE=
TTITLE0=Hoffnung
TTITLE1=Die Westmännerinseln
TTITLE2=Abendliche Segelfahrt
TTITLE3=Lennon
TTITLE4=A day after the night before
TTITLE5=Letzten Sommer
TTITLE6=Liebesgeständnis
TTITLE7=Weiter
TTITLE8=Tanz im Walde
TTITLE9=Sommerliches Liebesgedicht
TTITLE10=Saftiger Blues
TTITLE11=Jan Johansson
TTITLE12=Schottisches Missverständnis
TTITLE13=Strahlt, ihr Leuchttürme
TTITLE14=Jämtländischer Brautmarsch
TTITLE15=Thou Shalt be Good
TTITLE16=Amazing Grace
TTITLE17=Erinnerung
EXTD=
EXTT0=
EXTT1=
EXTT2=
EXTT3=
EXTT4=
EXTT5=
EXTT6=
EXTT7=
EXTT8=
EXTT9=
EXTT10=
EXTT11=
EXTT12=
EXTT13=
EXTT14=
EXTT15=
EXTT16=
EXTT17=
PLAYORDER=
